<svg width="24" height="24" viewBox="0 0 24 24" fill="none" xmlns="http://www.w3.org/2000/svg">
<path d="M18 10.8C19.988 10.8 21.6 9.188 21.6 7.2H24V7.201C24 10.515 21.314 13.201 18 13.201C17.958 13.201 17.916 13.201 17.874 13.2H17.88C17.386 15.559 15.559 17.386 13.239 17.873L13.2 17.88V20.4L19.2 22.8V24H4.8V22.8L10.8 20.4V17.88C8.441 17.386 6.614 15.559 6.127 13.239L6.12 13.2H6C2.686 13.2 0 10.514 0 7.2H2.4C2.4 9.188 4.012 10.8 6 10.8V4.8H2.4V7.2H0V2.4H6V0H18V2.4H24V7.2H21.6V4.8H18V10.8V10.8Z" fill="#59FF00"/>
</svg>
