<svg width="21" height="22" viewBox="0 0 21 22" fill="none" xmlns="http://www.w3.org/2000/svg">
<path d="M13.192 12.045C13.42 12.045 15.603 13.183 15.696 13.344C15.723 13.411 15.723 13.491 15.723 13.545C15.723 13.88 15.616 14.255 15.495 14.563C15.187 15.313 13.941 15.795 13.178 15.795C12.535 15.795 11.209 15.232 10.633 14.965C8.718 14.094 7.526 12.608 6.374 10.907C5.865 10.157 5.41 9.233 5.423 8.309V8.202C5.45 7.318 5.771 6.689 6.414 6.086C6.615 5.898 6.829 5.791 7.11 5.791C7.271 5.791 7.431 5.831 7.606 5.831C7.968 5.831 8.035 5.938 8.169 6.286C8.263 6.514 8.946 8.335 8.946 8.469C8.946 8.978 8.022 9.554 8.022 9.862C8.022 9.929 8.049 9.996 8.089 10.063C8.384 10.692 8.946 11.416 9.455 11.898C10.071 12.487 10.727 12.876 11.477 13.251C11.571 13.305 11.665 13.345 11.772 13.345C12.174 13.345 12.843 12.046 13.192 12.046V12.045ZM10.473 19.143C15.107 19.143 18.884 15.366 18.884 10.732C18.884 6.098 15.107 2.321 10.473 2.321C5.839 2.321 2.062 6.098 2.062 10.732C2.062 12.5 2.625 14.228 3.669 15.661L2.611 18.782L5.852 17.751C7.218 18.648 8.839 19.144 10.473 19.144V19.143ZM10.473 0.634003C16.044 0.634003 20.571 5.161 20.571 10.732C20.571 16.303 16.044 20.83 10.473 20.83C8.772 20.83 7.085 20.401 5.585 19.571L0 21.366L1.821 15.942C0.87 14.375 0.375 12.567 0.375 10.732C0.375 5.161 4.902 0.634003 10.473 0.634003V0.634003Z" fill="white"/>
</svg>
